<?xml version="1.0" encoding="utf-8"?>
<!-- Generator: Adobe Illustrator 21.1.0, SVG Export Plug-In . SVG Version: 6.00 Build 0)  -->
<svg version="1.1" id="Layer_1" xmlns="http://www.w3.org/2000/svg" xmlns:xlink="http://www.w3.org/1999/xlink" x="0px" y="0px"
	 viewBox="0 0 16 16" style="enable-background:new 0 0 16 16;" xml:space="preserve">
<style type="text/css">
	.st0{fill:#FFFFFF;}
</style>
<path class="st0" d="M13.7,2.3C12.1,0.8,10.1,0,8,0S3.9,0.8,2.3,2.3S0,5.9,0,8s0.8,4.1,2.3,5.7S5.9,16,8,16s4.1-0.8,5.7-2.3
	S16,10.1,16,8S15.2,3.9,13.7,2.3z M14,8c0,1.3-0.4,2.5-1.1,3.5L4.5,3.1C5.5,2.4,6.7,2,8,2C11.3,2,14,4.7,14,8z M2,8
	c0-1.3,0.4-2.5,1.1-3.5l8.4,8.4C10.5,13.6,9.3,14,8,14C4.7,14,2,11.3,2,8z"/>
</svg>
