<?xml version="1.0" encoding="utf-8"?>
<!-- Generator: Adobe Illustrator 21.1.0, SVG Export Plug-In . SVG Version: 6.00 Build 0)  -->
<svg version="1.1" id="Layer_1" xmlns="http://www.w3.org/2000/svg" xmlns:xlink="http://www.w3.org/1999/xlink" x="0px" y="0px"
	 viewBox="0 0 16 16" style="enable-background:new 0 0 16 16;" xml:space="preserve">
<style type="text/css">
	.st0{fill:#C6C6C6;}
</style>
<path class="st0" d="M2.3,9.7l5,5c0.4,0.4,1,0.4,1.4,0l5-5c0.4-0.4,0.4-1,0-1.4c-0.4-0.4-1-0.4-1.4,0L9,11.6V2c0-0.6-0.4-1-1-1
	C7.4,1,7,1.4,7,2v9.6L3.7,8.3C3.5,8.1,3.3,8,3,8S2.5,8.1,2.3,8.3C1.9,8.7,1.9,9.3,2.3,9.7z"/>
</svg>
