<?xml version="1.0" encoding="utf-8"?>
<!-- Generator: Adobe Illustrator 21.1.0, SVG Export Plug-In . SVG Version: 6.00 Build 0)  -->
<svg version="1.1" id="Layer_1" xmlns="http://www.w3.org/2000/svg" xmlns:xlink="http://www.w3.org/1999/xlink" x="0px" y="0px"
	 viewBox="0 0 16 16" style="enable-background:new 0 0 16 16;" xml:space="preserve">
<style type="text/css">
	.st0{fill:#FFFFFF;}
</style>
<path class="st0" d="M8,0.1C3.6,0.1,0.1,3.6,0.1,8s3.6,7.9,7.9,7.9s7.9-3.6,7.9-7.9S12.4,0.1,8,0.1z M13.5,4.7
	c-0.3,0.5-0.7,0.8-1.1,1.2c0,0.1,0,0.2,0,0.3c0,3-2.3,6.4-6.4,6.4c-1.3,0-2.4-0.4-3.4-1c0.2,0,0.4,0,0.5,0c1.1,0,2-0.4,2.8-1
	c-1,0-1.8-0.7-2.1-1.6c0.1,0,0.3,0,0.4,0c0.2,0,0.4,0,0.6-0.1C3.7,8.8,3,7.9,3,6.8l0,0C3.3,7,3.6,7.1,4,7.1C3.4,6.7,3,6,3,5.2
	c0-0.4,0.1-0.8,0.3-1.1c1.1,1.4,2.8,2.2,4.6,2.3c0-0.2-0.1-0.3-0.1-0.5c0-1.2,1-2.2,2.2-2.2c0.6,0,1.2,0.3,1.6,0.7
	c0.5-0.1,1-0.3,1.4-0.5c-0.2,0.5-0.5,1-1,1.2C12.6,5,13.1,4.9,13.5,4.7L13.5,4.7z"/>
</svg>
