<?xml version="1.0" encoding="utf-8"?>
<!-- Generator: Adobe Illustrator 21.1.0, SVG Export Plug-In . SVG Version: 6.00 Build 0)  -->
<svg version="1.1" id="Layer_1" xmlns="http://www.w3.org/2000/svg" xmlns:xlink="http://www.w3.org/1999/xlink" x="0px" y="0px"
	 viewBox="0 0 16 16" style="enable-background:new 0 0 16 16;" xml:space="preserve">
<style type="text/css">
	.st0{fill:#FFFFFF;}
</style>
<path class="st0" d="M8,0.1C3.6,0.1,0.1,3.6,0.1,8s3.5,7.9,7.9,7.9s7.9-3.5,7.9-7.9S12.4,0.1,8,0.1z M6,12.5H4v-7h2V12.5z M5,4.5
	c-0.6,0-1-0.4-1-1s0.4-1,1-1s1,0.4,1,1S5.5,4.5,5,4.5z M13,12.5h-2v-4c0-0.6-0.4-1-1-1s-1,0.4-1,1v4H7v-7h2v1.2
	c0.4-0.6,1-1.2,1.8-1.2C12,5.5,13,6.6,13,8V12.5z"/>
</svg>
